<svg width="18" height="18" viewBox="0 0 18 18" fill="none" xmlns="http://www.w3.org/2000/svg">
<path fill-rule="evenodd" clip-rule="evenodd" d="M16.9659 2.63203C17.2858 2.31212 17.2854 1.77326 16.9528 1.44067L15.7708 0.258606C15.4239 -0.0882097 14.9048 -0.0798331 14.5794 0.245547L8.60571 6.21923L2.63203 0.245547C2.31212 -0.0743633 1.77326 -0.0739864 1.44067 0.258606L0.258606 1.44067C-0.0882097 1.78748 -0.0798331 2.30665 0.245547 2.63203L6.21923 8.60571L0.245547 14.5794C-0.0743633 14.8993 -0.0739864 15.4382 0.258606 15.7708L1.44067 16.9528C1.78748 17.2996 2.30665 17.2913 2.63203 16.9659L8.60571 10.9922L14.5794 16.9659C14.8993 17.2858 15.4382 17.2854 15.7708 16.9528L16.9528 15.7708C17.2996 15.4239 17.2913 14.9048 16.9659 14.5794L10.9922 8.60571L16.9659 2.63203Z" fill="#0A0B0D"/>
</svg>
