<svg width="94" height="94" viewBox="0 0 94 94" fill="none" xmlns="http://www.w3.org/2000/svg">
<path fill-rule="evenodd" clip-rule="evenodd" d="M47 0C72.9558 0 94 21.0442 94 47C94 72.9558 72.9558 94 47 94C21.0442 94 0 72.9558 0 47C0 21.0442 21.0442 0 47 0ZM47 11.75C27.5655 11.75 11.75 27.5655 11.75 47C11.75 66.4345 27.5655 82.25 47 82.25C66.4345 82.25 82.25 66.4345 82.25 47C82.25 27.5655 66.4345 11.75 47 11.75ZM64.625 55.8125C52.8394 70.5 48.983 74.2746 48.983 74.2746C47.9028 75.4361 46.1118 75.4346 45.0129 74.2746C45.0129 74.2746 41.125 70.5 29.375 55.8125C26.6432 52.3978 26.4375 49.9375 32.3125 49.9375H38.1875V29.375C38.1875 26.108 41.1303 20.5625 47.0027 20.5625C52.875 20.5625 55.8125 26.131 55.8125 29.375V49.9375H61.6875C67.5625 49.9375 67.3712 52.3901 64.625 55.8125Z" fill="#AE896A"/>
</svg>
