<svg width="20" height="18" viewBox="0 0 20 18" fill="none" xmlns="http://www.w3.org/2000/svg">
<path fill-rule="evenodd" clip-rule="evenodd" d="M0.25 15.5C0.25 14.6025 0.990612 13.875 1.87902 13.875H18.121C19.0207 13.875 19.75 14.5963 19.75 15.5C19.75 16.3975 19.0094 17.125 18.121 17.125H1.87902C0.979337 17.125 0.25 16.4037 0.25 15.5ZM0.25 9C0.25 8.10254 0.990612 7.375 1.87902 7.375H18.121C19.0207 7.375 19.75 8.09628 19.75 9C19.75 9.89746 19.0094 10.625 18.121 10.625H1.87902C0.979337 10.625 0.25 9.90372 0.25 9ZM0.25 2.5C0.25 1.60254 0.990612 0.875 1.87902 0.875H18.121C19.0207 0.875 19.75 1.59628 19.75 2.5C19.75 3.39746 19.0094 4.125 18.121 4.125H1.87902C0.979337 4.125 0.25 3.40372 0.25 2.5Z" fill="#0A0B0D"/>
</svg>
