<svg width="69" height="65" viewBox="0 0 69 65" fill="none" xmlns="http://www.w3.org/2000/svg">
<path fill-rule="evenodd" clip-rule="evenodd" d="M31.8466 65C46.3368 65 58.5712 53.4203 62.4194 42.7331L66.3418 42.7331C68.5286 42.7331 69.7759 39.3292 68.4649 37.5711L57.8494 22.8761C56.7878 21.4494 54.6647 21.2249 53.6032 22.6517L42.9876 37.6833C41.6766 39.4414 42.9239 42.7331 45.1107 42.7331L51.0873 42.7331C47.7168 48.0767 40.3868 54.3127 31.8466 54.3127C20.1377 54.3127 10.6155 44.2774 10.6155 32.4947C10.6155 20.7066 20.1377 10.8957 31.8466 10.8957C35.8062 10.8957 39.665 11.8896 43.0089 13.9736C45.4982 15.5233 48.7678 14.695 50.3124 12.1888C51.8622 9.67733 51.0873 6.35893 48.5979 4.80393C43.5715 1.67256 37.7807 5.01933e-06 31.8466 4.50055e-06C14.2832 2.96511e-06 -1.33499e-06 14.8179 -2.88081e-06 32.5C-4.42662e-06 50.1821 14.2832 65 31.8466 65Z" fill="#AE896A"/>
</svg>
