<svg width="171" height="33" viewBox="0 0 171 33" fill="none" xmlns="http://www.w3.org/2000/svg">
<path d="M50.2781 22.5234C50.2781 21.8594 50.0437 21.3516 49.575 21C49.1062 20.6406 48.2625 20.2656 47.0437 19.875C45.825 19.4766 44.8602 19.0859 44.1492 18.7031C42.2117 17.6562 41.243 16.2461 41.243 14.4727C41.243 13.5508 41.5008 12.7305 42.0164 12.0117C42.5398 11.2852 43.2859 10.7188 44.2547 10.3125C45.2312 9.90625 46.325 9.70312 47.5359 9.70312C48.7547 9.70312 49.8406 9.92578 50.7937 10.3711C51.7469 10.8086 52.4852 11.4297 53.0086 12.2344C53.5398 13.0391 53.8055 13.9531 53.8055 14.9766H50.2898C50.2898 14.1953 50.0437 13.5898 49.5516 13.1602C49.0594 12.7227 48.368 12.5039 47.4773 12.5039C46.618 12.5039 45.95 12.6875 45.4734 13.0547C44.9969 13.4141 44.7586 13.8906 44.7586 14.4844C44.7586 15.0391 45.0359 15.5039 45.5906 15.8789C46.1531 16.2539 46.9773 16.6055 48.0633 16.9336C50.0633 17.5352 51.5203 18.2812 52.4344 19.1719C53.3484 20.0625 53.8055 21.1719 53.8055 22.5C53.8055 23.9766 53.2469 25.1367 52.1297 25.9805C51.0125 26.8164 49.5086 27.2344 47.618 27.2344C46.3055 27.2344 45.1102 26.9961 44.032 26.5195C42.9539 26.0352 42.1297 25.375 41.5594 24.5391C40.9969 23.7031 40.7156 22.7344 40.7156 21.6328H44.243C44.243 23.5156 45.368 24.457 47.618 24.457C48.4539 24.457 49.1062 24.2891 49.575 23.9531C50.0437 23.6094 50.2781 23.1328 50.2781 22.5234Z" fill="#AE896A"/>
<path d="M54.8461 20.543C54.8461 19.2852 55.0883 18.1641 55.5727 17.1797C56.057 16.1953 56.7523 15.4336 57.6586 14.8945C58.5727 14.3555 59.6312 14.0859 60.8344 14.0859C62.5453 14.0859 63.9398 14.6094 65.018 15.6562C66.1039 16.7031 66.7094 18.125 66.8344 19.9219L66.8578 20.7891C66.8578 22.7344 66.3148 24.2969 65.2289 25.4766C64.143 26.6484 62.6859 27.2344 60.8578 27.2344C59.0297 27.2344 57.5687 26.6484 56.475 25.4766C55.3891 24.3047 54.8461 22.7109 54.8461 20.6953V20.543ZM58.2328 20.7891C58.2328 21.9922 58.4594 22.9141 58.9125 23.5547C59.3656 24.1875 60.0141 24.5039 60.8578 24.5039C61.6781 24.5039 62.3187 24.1914 62.7797 23.5664C63.2406 22.9336 63.4711 21.9258 63.4711 20.543C63.4711 19.3633 63.2406 18.4492 62.7797 17.8008C62.3187 17.1523 61.6703 16.8281 60.8344 16.8281C60.0062 16.8281 59.3656 17.1523 58.9125 17.8008C58.4594 18.4414 58.2328 19.4375 58.2328 20.7891Z" fill="#AE896A"/>
<path d="M71.4609 14.3203L71.5664 15.7852C72.4727 14.6523 73.6875 14.0859 75.2109 14.0859C76.5547 14.0859 77.5547 14.4805 78.2109 15.2695C78.8672 16.0586 79.2031 17.2383 79.2188 18.8086V27H75.832V18.8906C75.832 18.1719 75.6758 17.6523 75.3633 17.332C75.0508 17.0039 74.5312 16.8398 73.8047 16.8398C72.8516 16.8398 72.1367 17.2461 71.6602 18.0586V27H68.2734V14.3203H71.4609Z" fill="#AE896A"/>
<path d="M80.7047 20.5664C80.7047 18.6211 81.1656 17.0547 82.0875 15.8672C83.0172 14.6797 84.2672 14.0859 85.8375 14.0859C87.2281 14.0859 88.3102 14.5625 89.0836 15.5156L89.2242 14.3203H92.2945V26.5781C92.2945 27.6875 92.0406 28.6523 91.5328 29.4727C91.0328 30.293 90.3258 30.918 89.4117 31.3477C88.4977 31.7773 87.4273 31.9922 86.2008 31.9922C85.2711 31.9922 84.3648 31.8047 83.482 31.4297C82.5992 31.0625 81.9313 30.5859 81.4781 30L82.9781 27.9375C83.8219 28.8828 84.8453 29.3555 86.0484 29.3555C86.9469 29.3555 87.6461 29.1133 88.1461 28.6289C88.6461 28.1523 88.8961 27.4727 88.8961 26.5898V25.9102C88.1148 26.793 87.0875 27.2344 85.8141 27.2344C84.2906 27.2344 83.0563 26.6406 82.1109 25.4531C81.1734 24.2578 80.7047 22.6758 80.7047 20.707V20.5664ZM84.0914 20.8125C84.0914 21.9609 84.3219 22.8633 84.7828 23.5195C85.2438 24.168 85.8766 24.4922 86.6813 24.4922C87.7125 24.4922 88.4508 24.1055 88.8961 23.332V18C88.443 17.2266 87.7125 16.8398 86.7047 16.8398C85.8922 16.8398 85.2516 17.1719 84.7828 17.8359C84.3219 18.5 84.0914 19.4922 84.0914 20.8125Z" fill="#AE896A"/>
<path d="M94.5305 27V9.9375H99.7805C101.28 9.9375 102.62 10.2773 103.8 10.957C104.987 11.6289 105.913 12.5898 106.577 13.8398C107.241 15.082 107.573 16.4961 107.573 18.082V18.8672C107.573 20.4531 107.245 21.8633 106.589 23.0977C105.941 24.332 105.023 25.2891 103.835 25.9688C102.648 26.6484 101.308 26.9922 99.8156 27H94.5305ZM98.0461 12.7852V24.1758H99.7453C101.12 24.1758 102.171 23.7266 102.898 22.8281C103.624 21.9297 103.995 20.6445 104.011 18.9727V18.0703C104.011 16.3359 103.652 15.0234 102.933 14.1328C102.214 13.2344 101.163 12.7852 99.7805 12.7852H98.0461Z" fill="#AE896A"/>
<path d="M108.79 20.543C108.79 19.2852 109.032 18.1641 109.516 17.1797C110.001 16.1953 110.696 15.4336 111.602 14.8945C112.516 14.3555 113.575 14.0859 114.778 14.0859C116.489 14.0859 117.884 14.6094 118.962 15.6562C120.048 16.7031 120.653 18.125 120.778 19.9219L120.802 20.7891C120.802 22.7344 120.259 24.2969 119.173 25.4766C118.087 26.6484 116.63 27.2344 114.802 27.2344C112.973 27.2344 111.512 26.6484 110.419 25.4766C109.333 24.3047 108.79 22.7109 108.79 20.6953V20.543ZM112.177 20.7891C112.177 21.9922 112.403 22.9141 112.856 23.5547C113.309 24.1875 113.958 24.5039 114.802 24.5039C115.622 24.5039 116.262 24.1914 116.723 23.5664C117.184 22.9336 117.415 21.9258 117.415 20.543C117.415 19.3633 117.184 18.4492 116.723 17.8008C116.262 17.1523 115.614 16.8281 114.778 16.8281C113.95 16.8281 113.309 17.1523 112.856 17.8008C112.403 18.4414 112.177 19.4375 112.177 20.7891Z" fill="#AE896A"/>
<path d="M125.405 14.3203L125.51 15.7852C126.416 14.6523 127.631 14.0859 129.155 14.0859C130.498 14.0859 131.498 14.4805 132.155 15.2695C132.811 16.0586 133.147 17.2383 133.163 18.8086V27H129.776V18.8906C129.776 18.1719 129.62 17.6523 129.307 17.332C128.995 17.0039 128.475 16.8398 127.748 16.8398C126.795 16.8398 126.08 17.2461 125.604 18.0586V27H122.217V14.3203H125.405Z" fill="#AE896A"/>
<path d="M139.746 21.9141L138.527 23.1328V27H135.141V9H138.527V18.9727L139.184 18.1289L142.43 14.3203H146.496L141.914 19.6055L146.895 27H143.004L139.746 21.9141Z" fill="#AE896A"/>
<path d="M152.962 27.2344C151.103 27.2344 149.587 26.6641 148.416 25.5234C147.252 24.3828 146.67 22.8633 146.67 20.9648V20.6367C146.67 19.3633 146.916 18.2266 147.408 17.2266C147.9 16.2188 148.595 15.4453 149.494 14.9062C150.4 14.3594 151.431 14.0859 152.587 14.0859C154.322 14.0859 155.685 14.6328 156.677 15.7266C157.677 16.8203 158.177 18.3711 158.177 20.3789V21.7617H150.103C150.212 22.5898 150.541 23.2539 151.087 23.7539C151.642 24.2539 152.341 24.5039 153.185 24.5039C154.49 24.5039 155.509 24.0312 156.244 23.0859L157.908 24.9492C157.4 25.668 156.712 26.2305 155.845 26.6367C154.978 27.0352 154.017 27.2344 152.962 27.2344ZM152.576 16.8281C151.904 16.8281 151.357 17.0547 150.935 17.5078C150.521 17.9609 150.255 18.6094 150.138 19.4531H154.849V19.1836C154.834 18.4336 154.63 17.8555 154.24 17.4492C153.849 17.0352 153.295 16.8281 152.576 16.8281Z" fill="#AE896A"/>
<path d="M164.081 22.207L166.425 14.3203H170.058L164.96 28.9688L164.679 29.6367C163.921 31.293 162.671 32.1211 160.929 32.1211C160.437 32.1211 159.937 32.0469 159.429 31.8984V29.332L159.945 29.3438C160.585 29.3438 161.062 29.2461 161.374 29.0508C161.695 28.8555 161.945 28.5312 162.124 28.0781L162.523 27.0352L158.081 14.3203H161.726L164.081 22.207Z" fill="#AE896A"/>
<path d="M2.59303 31.9172L2.46308 31.2152L2.18853 30.461L1.86721 30.0534L1.66978 29.6095L1.78938 28.3396L2.05357 26.7647L1.97074 25.7112L1.83579 25.1127L1.86721 24.6066L2.18853 23.9665L2.69692 23.2848L3.37597 22.0664L3.4538 21.1164L3.5834 19.9602L3.31921 18.7724L2.80046 17.7243L2.3856 16.8674L1.90862 15.804L1.64407 14.8127V13.6249L1.44164 15.3597L1.40023 16.351V17.6006L1.44164 18.3801L1.8515 19.0927L1.9811 19.645V22.8978L1.57124 23.3779L1.4727 23.6512L1.16174 23.476L1.03714 23.7497V23.1405L0.959666 22.7943L0.886479 22.4897L0.788298 22.0871H0.61193L0.409856 21.9115L0.176009 21.679L0.144949 21.0649L0 19.6709L0.0414133 18.7571L0.279902 17.2235L0.409856 15.525L0.549453 14.4097L1.03714 12.8092L1.71119 11.689L2.59303 11.0126L3.61482 10.171L5.155 9.69081L5.97436 9.21064L7.68091 9.24156L10.0715 9.44806L12.561 9.86105L14.3968 9.99043L17.1658 10.0988L18.2705 10.1297H19.6446L20.1323 9.87172L20.3087 9.70645L20.2362 9.38622L20.1323 9.22095L20.6196 9.09726L20.6407 8.78734L20.9463 8.6633L21.0138 8.27625L21.0556 8.02319L21.3665 8.01288L21.5015 7.58461H21.8646V7.21781L22.409 7.15064V7.00634L22.5597 6.81513L22.6322 6.55176L22.9278 6.4949V6.44869L23.016 6.15938L23.2234 5.91663L23.2751 5.63265L23.7628 5.58112L24.1723 5.42616L24.0738 5.07536L24.2555 4.7601H24.6961L24.6754 4.37305L24.6443 4.15625L24.9296 4.05816L25.1838 4.06846L25.3187 4.00662L25.2355 3.61922L25.4169 3.44897L25.5986 3.38713L25.8164 3.52112L26.0706 3.61922L26.0603 2.66421L26.2263 1.50235L26.3298 0.882857L26.4283 0.335869L26.755 0.051891L26.9367 0L27.1442 0.0621981L27.3412 0.315255L27.4137 0.733226L27.4812 1.60578L27.559 2.04472V2.42146L27.5797 2.63826L27.6108 2.66421L27.8493 2.56078L28.4926 1.57983L28.6219 1.03782L28.7258 0.335869L28.7779 0.0312767L28.9282 0L29.1613 0.113734L29.3223 0.43894L29.4519 0.671383L29.4726 1.23934L29.4776 2.01344L29.4726 2.51955L29.4259 3.04131L29.3534 3.55737L29.0942 3.99631L29.0317 4.19748L29.4776 4.30091L29.9136 4.53299L30.4944 5.14751L30.9818 5.9273L31.3291 6.60863L31.3916 7.06818L31.573 7.4037L32.1124 8.15754L33.1185 9.23659L33.3309 9.61866L33.3467 9.7786L33.6683 10.0523L33.9432 10.3519L34 10.7752L33.99 11.0954L33.8808 11.2863L33.7097 11.4306L33.5851 11.5703L33.4713 11.8077L33.1756 11.9989L32.8697 12.1123L32.2267 12.2207L31.7804 12.1226L31.2877 11.9161L30.9196 11.7046L30.3077 11.5806L29.6126 11.3584L29.2702 11.1416L29.1149 11.0748L28.6793 11.121H28.2538L27.9118 11.2241L27.7354 11.4L27.5019 11.8955L27.1235 12.8092L26.724 13.4134L26.2156 14.3685L25.4897 15.1689L25.0074 15.7109L24.665 16.2685L24.3073 17.2957L24.0117 18.272L23.6747 18.8499L23.2027 19.3507L22.8603 19.6244L22.7046 20.1717L22.5697 20.9462L22.1341 21.5554L21.906 22.1748L21.6882 23.3157L21.6364 24.1108L21.2837 26.7544L21.1073 28.1743L21.1384 28.8247L21.1694 29.4389L21.3458 29.8625L21.766 30.3011L22.0513 30.8694L22.4558 31.2924L22.715 31.5508V31.8657L22.1341 31.9481L20.0288 31.9534L18.9188 31.8863L18.7838 31.4786V31.2511L19.012 30.8794L19.1623 30.6419V30.4305L19.0484 30.1774L18.8256 30.0171L18.6489 29.785L18.5507 29.4389L18.6907 29.1499L19.1366 28.8247L19.3233 27.7201L19.1523 26.6097L18.867 26.078L18.7217 25.412V24.7875L19.0848 23.2745L18.8356 22.5104L18.6907 21.8599V20.3576L18.3586 20.2129L16.1494 21.0958L14.6663 21.1317L13.0794 20.9359L11.1918 20.2854L9.48528 19.903L8.93048 19.7328L8.41208 19.3507L8.26642 19.4744L8.17359 19.8461L7.75838 19.8774L7.2814 19.6656L6.99079 19.8049L6.60699 20.4656L5.89153 21.8909L5.51273 22.4588L5.0254 23.3882L4.82297 24.9009L4.85439 26.5273L5.155 28.0709L5.35207 29.0259L5.61627 29.9037L5.8087 30.3996L5.90153 30.5339L5.99506 30.5645L6.18179 30.7248L6.46205 31.0393L6.73159 31.4786L6.77801 31.6229L6.80942 31.9534L6.12466 32L5.17571 31.9534H4.71944L3.69765 31.9172L3.0236 31.9069L2.59303 31.9172Z" fill="#AE896A"/>
</svg>
