<svg width="45" height="33" viewBox="0 0 45 33" fill="none" xmlns="http://www.w3.org/2000/svg">
<path d="M2.59303 31.9172L2.46308 31.2152L2.18853 30.461L1.86721 30.0534L1.66978 29.6095L1.78938 28.3396L2.05357 26.7647L1.97074 25.7112L1.83579 25.1127L1.86721 24.6066L2.18853 23.9665L2.69692 23.2848L3.37597 22.0664L3.4538 21.1164L3.5834 19.9602L3.31921 18.7724L2.80046 17.7243L2.3856 16.8674L1.90862 15.804L1.64407 14.8127V13.6249L1.44164 15.3597L1.40023 16.351V17.6006L1.44164 18.3801L1.8515 19.0927L1.9811 19.645V22.8978L1.57124 23.3779L1.4727 23.6512L1.16174 23.476L1.03714 23.7497V23.1405L0.959666 22.7943L0.886479 22.4897L0.788298 22.0871H0.61193L0.409856 21.9115L0.176009 21.679L0.144949 21.0649L0 19.6709L0.0414133 18.7571L0.279902 17.2235L0.409856 15.525L0.549453 14.4097L1.03714 12.8092L1.71119 11.689L2.59303 11.0126L3.61482 10.171L5.155 9.69081L5.97436 9.21064L7.68091 9.24156L10.0715 9.44806L12.561 9.86105L14.3968 9.99043L17.1658 10.0988L18.2705 10.1297H19.6446L20.1323 9.87172L20.3087 9.70645L20.2362 9.38622L20.1323 9.22095L20.6196 9.09726L20.6407 8.78734L20.9463 8.6633L21.0138 8.27625L21.0556 8.02319L21.3665 8.01288L21.5015 7.58461H21.8646V7.21781L22.409 7.15064V7.00634L22.5597 6.81513L22.6322 6.55176L22.9278 6.4949V6.44869L23.016 6.15938L23.2234 5.91663L23.2751 5.63265L23.7628 5.58112L24.1723 5.42616L24.0738 5.07536L24.2555 4.7601H24.6961L24.6754 4.37305L24.6443 4.15625L24.9296 4.05816L25.1838 4.06846L25.3187 4.00662L25.2355 3.61922L25.4169 3.44897L25.5986 3.38713L25.8164 3.52112L26.0706 3.61922L26.0603 2.66421L26.2263 1.50235L26.3298 0.882857L26.4283 0.335869L26.755 0.051891L26.9367 0L27.1442 0.0621981L27.3412 0.315255L27.4137 0.733226L27.4812 1.60578L27.559 2.04472V2.42146L27.5797 2.63826L27.6108 2.66421L27.8493 2.56078L28.4926 1.57983L28.6219 1.03782L28.7258 0.335869L28.7779 0.0312767L28.9282 0L29.1613 0.113734L29.3223 0.43894L29.4519 0.671383L29.4726 1.23934L29.4776 2.01344L29.4726 2.51955L29.4259 3.04131L29.3534 3.55737L29.0942 3.99631L29.0317 4.19748L29.4776 4.30091L29.9136 4.53299L30.4944 5.14751L30.9818 5.9273L31.3291 6.60863L31.3916 7.06818L31.573 7.4037L32.1124 8.15754L33.1185 9.23659L33.3309 9.61866L33.3467 9.7786L33.6683 10.0523L33.9432 10.3519L34 10.7752L33.99 11.0954L33.8808 11.2863L33.7097 11.4306L33.5851 11.5703L33.4713 11.8077L33.1756 11.9989L32.8697 12.1123L32.2267 12.2207L31.7804 12.1226L31.2877 11.9161L30.9196 11.7046L30.3077 11.5806L29.6126 11.3584L29.2702 11.1416L29.1149 11.0748L28.6793 11.121H28.2538L27.9118 11.2241L27.7354 11.4L27.5019 11.8955L27.1235 12.8092L26.724 13.4134L26.2156 14.3685L25.4897 15.1689L25.0074 15.7109L24.665 16.2685L24.3073 17.2957L24.0117 18.272L23.6747 18.8499L23.2027 19.3507L22.8603 19.6244L22.7046 20.1717L22.5697 20.9462L22.1341 21.5554L21.906 22.1748L21.6882 23.3157L21.6364 24.1108L21.2837 26.7544L21.1073 28.1743L21.1384 28.8247L21.1694 29.4389L21.3458 29.8625L21.766 30.3011L22.0513 30.8694L22.4558 31.2924L22.715 31.5508V31.8657L22.1341 31.9481L20.0288 31.9534L18.9188 31.8863L18.7838 31.4786V31.2511L19.012 30.8794L19.1623 30.6419V30.4305L19.0484 30.1774L18.8256 30.0171L18.6489 29.785L18.5507 29.4389L18.6907 29.1499L19.1366 28.8247L19.3233 27.7201L19.1523 26.6097L18.867 26.078L18.7217 25.412V24.7875L19.0848 23.2745L18.8356 22.5104L18.6907 21.8599V20.3576L18.3586 20.2129L16.1494 21.0958L14.6663 21.1317L13.0794 20.9359L11.1918 20.2854L9.48528 19.903L8.93048 19.7328L8.41208 19.3507L8.26642 19.4744L8.17359 19.8461L7.75838 19.8774L7.2814 19.6656L6.99079 19.8049L6.60699 20.4656L5.89153 21.8909L5.51273 22.4588L5.0254 23.3882L4.82297 24.9009L4.85439 26.5273L5.155 28.0709L5.35207 29.0259L5.61627 29.9037L5.8087 30.3996L5.90153 30.5339L5.99506 30.5645L6.18179 30.7248L6.46205 31.0393L6.73159 31.4786L6.77801 31.6229L6.80942 31.9534L6.12466 32L5.17571 31.9534H4.71944L3.69765 31.9172L3.0236 31.9069L2.59303 31.9172Z" fill="#AE896A"/>
</svg>