<svg width="43" height="43" viewBox="0 0 43 43" fill="none" xmlns="http://www.w3.org/2000/svg">
<path fill-rule="evenodd" clip-rule="evenodd" d="M13.697 28.8429L4.44803 25.7079C4.03646 25.5678 3.67905 25.3024 3.42595 24.9489C3.17286 24.5955 3.03676 24.1716 3.03676 23.7369C3.03676 23.3021 3.17286 22.8783 3.42595 22.5248C3.67905 22.1713 4.03646 21.9059 4.44803 21.7659L13.697 18.6339C14.0002 18.5313 14.2757 18.3602 14.502 18.1339C14.7284 17.9075 14.8995 17.6321 15.002 17.3289L18.134 8.07686C18.2734 7.66422 18.5387 7.30568 18.8926 7.05172C19.2464 6.79776 19.671 6.66117 20.1065 6.66117C20.5421 6.66117 20.9667 6.79776 21.3205 7.05172C21.6743 7.30568 21.9396 7.66422 22.079 8.07686L25.211 17.3289C25.421 17.9439 25.901 18.4269 26.516 18.6339L35.765 21.7659C36.1766 21.9059 36.534 22.1713 36.7871 22.5248C37.0402 22.8783 37.1763 23.3021 37.1763 23.7369C37.1763 24.1716 37.0402 24.5955 36.7871 24.9489C36.534 25.3024 36.1766 25.5678 35.765 25.7079L26.516 28.8429C26.2131 28.9451 25.9379 29.1158 25.7116 29.3416C25.4853 29.5673 25.314 29.8422 25.211 30.1449L22.079 39.3969C21.9396 39.8095 21.6743 40.168 21.3205 40.422C20.9667 40.676 20.5421 40.8125 20.1065 40.8125C19.671 40.8125 19.2464 40.676 18.8926 40.422C18.5387 40.168 18.2734 39.8095 18.134 39.3969L15.002 30.1449C14.8991 29.8422 14.7278 29.5673 14.5015 29.3416C14.2752 29.1158 13.9999 28.9451 13.697 28.8429V28.8429ZM32.411 9.77486L28.481 8.44586C28.2833 8.37993 28.1114 8.25348 27.9896 8.08442C27.8677 7.91536 27.8022 7.71225 27.8022 7.50386C27.8022 7.29547 27.8677 7.09236 27.9896 6.92329C28.1114 6.75423 28.2833 6.62778 28.481 6.56186L32.411 5.23286C32.5561 5.18398 32.6879 5.10223 32.7962 4.99398C32.9044 4.88574 32.9862 4.75393 33.035 4.60886L34.364 0.678858C34.43 0.481171 34.5564 0.309234 34.7255 0.187397C34.8945 0.0655606 35.0976 0 35.306 0C35.5144 0 35.7175 0.0655606 35.8866 0.187397C36.0557 0.309234 36.1821 0.481171 36.248 0.678858L37.577 4.60886C37.676 4.90286 37.907 5.13386 38.201 5.23286L42.131 6.56186C42.3287 6.62778 42.5007 6.75423 42.6225 6.92329C42.7443 7.09236 42.8099 7.29547 42.8099 7.50386C42.8099 7.71225 42.7443 7.91536 42.6225 8.08442C42.5007 8.25348 42.3287 8.37993 42.131 8.44586L38.201 9.77486C38.056 9.82373 37.9241 9.90548 37.8159 10.0137C37.7077 10.122 37.6259 10.2538 37.577 10.3989L36.248 14.3289C36.1821 14.5265 36.0557 14.6985 35.8866 14.8203C35.7175 14.9422 35.5144 15.0077 35.306 15.0077C35.0976 15.0077 34.8945 14.9422 34.7255 14.8203C34.5564 14.6985 34.43 14.5265 34.364 14.3289L33.035 10.3989C32.9862 10.2538 32.9044 10.122 32.7962 10.0137C32.6879 9.90548 32.5561 9.82373 32.411 9.77486V9.77486ZM2.68403 38.9439L0.620027 38.2449C0.439299 38.1838 0.282271 38.0676 0.171047 37.9126C0.0598221 37.7576 0 37.5716 0 37.3809C0 37.1901 0.0598221 37.0041 0.171047 36.8491C0.282271 36.6941 0.439299 36.5779 0.620027 36.5169L2.68403 35.8179C2.83519 35.7665 2.97252 35.6811 3.08541 35.5682C3.19829 35.4554 3.2837 35.318 3.33503 35.1669L4.03403 33.1029C4.0951 32.9221 4.21131 32.7651 4.3663 32.6539C4.52129 32.5427 4.70726 32.4828 4.89803 32.4828C5.0888 32.4828 5.27476 32.5427 5.42975 32.6539C5.58474 32.7651 5.70095 32.9221 5.76203 33.1029L6.46103 35.1669C6.51266 35.3183 6.59853 35.4559 6.71195 35.5688C6.82538 35.6817 6.96331 35.7669 7.11503 35.8179L9.17903 36.5169C9.35976 36.5779 9.51678 36.6941 9.62801 36.8491C9.73923 37.0041 9.79905 37.1901 9.79905 37.3809C9.79905 37.5716 9.73923 37.7576 9.62801 37.9126C9.51678 38.0676 9.35976 38.1838 9.17903 38.2449L7.11503 38.9439C6.96331 38.9948 6.82538 39.08 6.71195 39.1929C6.59853 39.3058 6.51266 39.4434 6.46103 39.5949L5.76203 41.6589C5.70095 41.8396 5.58474 41.9966 5.42975 42.1078C5.27476 42.2191 5.0888 42.2789 4.89803 42.2789C4.70726 42.2789 4.52129 42.2191 4.3663 42.1078C4.21131 41.9966 4.0951 41.8396 4.03403 41.6589L3.33503 39.5949C3.2837 39.4437 3.19829 39.3064 3.08541 39.1935C2.97252 39.0806 2.83519 38.9952 2.68403 38.9439V38.9439Z" fill="white"/>
</svg>
