<svg width="49" height="49" viewBox="0 0 49 49" fill="none" xmlns="http://www.w3.org/2000/svg">
<path fill-rule="evenodd" clip-rule="evenodd" d="M24.5 49C38.0322 49 49 38.0322 49 24.5C49 10.9678 38.0322 0 24.5 0C10.9678 0 0 10.9678 0 24.5C0 38.0322 10.9678 49 24.5 49ZM24.5 42.875C14.3693 42.875 6.125 34.6307 6.125 24.5C6.125 14.3693 14.3693 6.125 24.5 6.125C34.6307 6.125 42.875 14.3693 42.875 24.5C42.875 34.6307 34.6307 42.875 24.5 42.875ZM16.3333 18.375C14.4246 20.7537 14.2917 22.4583 16.3333 22.4583H20.4167V34.7083C20.4167 36.9631 22.2273 38.7917 24.4982 38.7917C26.769 38.7917 28.5833 36.979 28.5833 34.7083V22.4583H32.6667C34.7083 22.4583 34.5654 20.7484 32.6667 18.375C24.5 8.16667 25.7785 9.76575 25.7785 9.76575C25.0714 8.8826 23.9585 8.85111 23.2298 9.76575C23.2298 9.76575 24.5247 8.16667 16.3333 18.375Z" fill="white"/>
</svg>
